<?xml version="1.0" encoding="UTF-8"?>
<svg xmlns="http://www.w3.org/2000/svg" xmlns:xlink="http://www.w3.org/1999/xlink" width="800" height="500" viewBox="0 0 800 500">
<defs>
<clipPath id="clip-0">
<path clip-rule="nonzero" d="M 180 320 L 323 320 L 323 420 L 180 420 Z M 180 320 "/>
</clipPath>
<clipPath id="clip-1">
<path clip-rule="nonzero" d="M 180 420 L 230 320 L 280 420 M 350 420 L 350 320 L 450 320 L 450 420 Z M 620 370 C 620 392.089844 602.089844 410 580 410 C 557.910156 410 540 392.089844 540 370 C 540 347.910156 557.910156 330 580 330 C 602.089844 330 620 347.910156 620 370 Z M 620 370 "/>
</clipPath>
<clipPath id="clip-2">
<path clip-rule="nonzero" d="M 180 320 L 328 320 L 328 420 L 180 420 Z M 180 320 "/>
</clipPath>
<clipPath id="clip-3">
<path clip-rule="nonzero" d="M 180 420 L 230 320 L 280 420 M 350 420 L 350 320 L 450 320 L 450 420 Z M 620 370 C 620 392.089844 602.089844 410 580 410 C 557.910156 410 540 392.089844 540 370 C 540 347.910156 557.910156 330 580 330 C 602.089844 330 620 347.910156 620 370 Z M 620 370 "/>
</clipPath>
<clipPath id="clip-4">
<path clip-rule="nonzero" d="M 180 320 L 333 320 L 333 420 L 180 420 Z M 180 320 "/>
</clipPath>
<clipPath id="clip-5">
<path clip-rule="nonzero" d="M 180 420 L 230 320 L 280 420 M 350 420 L 350 320 L 450 320 L 450 420 Z M 620 370 C 620 392.089844 602.089844 410 580 410 C 557.910156 410 540 392.089844 540 370 C 540 347.910156 557.910156 330 580 330 C 602.089844 330 620 347.910156 620 370 Z M 620 370 "/>
</clipPath>
<clipPath id="clip-6">
<path clip-rule="nonzero" d="M 180 320 L 338 320 L 338 420 L 180 420 Z M 180 320 "/>
</clipPath>
<clipPath id="clip-7">
<path clip-rule="nonzero" d="M 180 420 L 230 320 L 280 420 M 350 420 L 350 320 L 450 320 L 450 420 Z M 620 370 C 620 392.089844 602.089844 410 580 410 C 557.910156 410 540 392.089844 540 370 C 540 347.910156 557.910156 330 580 330 C 602.089844 330 620 347.910156 620 370 Z M 620 370 "/>
</clipPath>
<clipPath id="clip-8">
<path clip-rule="nonzero" d="M 180 320 L 343 320 L 343 420 L 180 420 Z M 180 320 "/>
</clipPath>
<clipPath id="clip-9">
<path clip-rule="nonzero" d="M 180 420 L 230 320 L 280 420 M 350 420 L 350 320 L 450 320 L 450 420 Z M 620 370 C 620 392.089844 602.089844 410 580 410 C 557.910156 410 540 392.089844 540 370 C 540 347.910156 557.910156 330 580 330 C 602.089844 330 620 347.910156 620 370 Z M 620 370 "/>
</clipPath>
<clipPath id="clip-10">
<path clip-rule="nonzero" d="M 180 320 L 348 320 L 348 420 L 180 420 Z M 180 320 "/>
</clipPath>
<clipPath id="clip-11">
<path clip-rule="nonzero" d="M 180 420 L 230 320 L 280 420 M 350 420 L 350 320 L 450 320 L 450 420 Z M 620 370 C 620 392.089844 602.089844 410 580 410 C 557.910156 410 540 392.089844 540 370 C 540 347.910156 557.910156 330 580 330 C 602.089844 330 620 347.910156 620 370 Z M 620 370 "/>
</clipPath>
<clipPath id="clip-12">
<path clip-rule="nonzero" d="M 180 320 L 353 320 L 353 420 L 180 420 Z M 180 320 "/>
</clipPath>
<clipPath id="clip-13">
<path clip-rule="nonzero" d="M 180 420 L 230 320 L 280 420 M 350 420 L 350 320 L 450 320 L 450 420 Z M 620 370 C 620 392.089844 602.089844 410 580 410 C 557.910156 410 540 392.089844 540 370 C 540 347.910156 557.910156 330 580 330 C 602.089844 330 620 347.910156 620 370 Z M 620 370 "/>
</clipPath>
<clipPath id="clip-14">
<path clip-rule="nonzero" d="M 180 320 L 358 320 L 358 420 L 180 420 Z M 180 320 "/>
</clipPath>
<clipPath id="clip-15">
<path clip-rule="nonzero" d="M 180 420 L 230 320 L 280 420 M 350 420 L 350 320 L 450 320 L 450 420 Z M 620 370 C 620 392.089844 602.089844 410 580 410 C 557.910156 410 540 392.089844 540 370 C 540 347.910156 557.910156 330 580 330 C 602.089844 330 620 347.910156 620 370 Z M 620 370 "/>
</clipPath>
<clipPath id="clip-16">
<path clip-rule="nonzero" d="M 180 320 L 363 320 L 363 420 L 180 420 Z M 180 320 "/>
</clipPath>
<clipPath id="clip-17">
<path clip-rule="nonzero" d="M 180 420 L 230 320 L 280 420 M 350 420 L 350 320 L 450 320 L 450 420 Z M 620 370 C 620 392.089844 602.089844 410 580 410 C 557.910156 410 540 392.089844 540 370 C 540 347.910156 557.910156 330 580 330 C 602.089844 330 620 347.910156 620 370 Z M 620 370 "/>
</clipPath>
<clipPath id="clip-18">
<path clip-rule="nonzero" d="M 180 320 L 368 320 L 368 420 L 180 420 Z M 180 320 "/>
</clipPath>
<clipPath id="clip-19">
<path clip-rule="nonzero" d="M 180 420 L 230 320 L 280 420 M 350 420 L 350 320 L 450 320 L 450 420 Z M 620 370 C 620 392.089844 602.089844 410 580 410 C 557.910156 410 540 392.089844 540 370 C 540 347.910156 557.910156 330 580 330 C 602.089844 330 620 347.910156 620 370 Z M 620 370 "/>
</clipPath>
<clipPath id="clip-20">
<path clip-rule="nonzero" d="M 180 320 L 373 320 L 373 420 L 180 420 Z M 180 320 "/>
</clipPath>
<clipPath id="clip-21">
<path clip-rule="nonzero" d="M 180 420 L 230 320 L 280 420 M 350 420 L 350 320 L 450 320 L 450 420 Z M 620 370 C 620 392.089844 602.089844 410 580 410 C 557.910156 410 540 392.089844 540 370 C 540 347.910156 557.910156 330 580 330 C 602.089844 330 620 347.910156 620 370 Z M 620 370 "/>
</clipPath>
<clipPath id="clip-22">
<path clip-rule="nonzero" d="M 180 320 L 378 320 L 378 420 L 180 420 Z M 180 320 "/>
</clipPath>
<clipPath id="clip-23">
<path clip-rule="nonzero" d="M 180 420 L 230 320 L 280 420 M 350 420 L 350 320 L 450 320 L 450 420 Z M 620 370 C 620 392.089844 602.089844 410 580 410 C 557.910156 410 540 392.089844 540 370 C 540 347.910156 557.910156 330 580 330 C 602.089844 330 620 347.910156 620 370 Z M 620 370 "/>
</clipPath>
<clipPath id="clip-24">
<path clip-rule="nonzero" d="M 180 320 L 383 320 L 383 420 L 180 420 Z M 180 320 "/>
</clipPath>
<clipPath id="clip-25">
<path clip-rule="nonzero" d="M 180 420 L 230 320 L 280 420 M 350 420 L 350 320 L 450 320 L 450 420 Z M 620 370 C 620 392.089844 602.089844 410 580 410 C 557.910156 410 540 392.089844 540 370 C 540 347.910156 557.910156 330 580 330 C 602.089844 330 620 347.910156 620 370 Z M 620 370 "/>
</clipPath>
<clipPath id="clip-26">
<path clip-rule="nonzero" d="M 180 320 L 388 320 L 388 420 L 180 420 Z M 180 320 "/>
</clipPath>
<clipPath id="clip-27">
<path clip-rule="nonzero" d="M 180 420 L 230 320 L 280 420 M 350 420 L 350 320 L 450 320 L 450 420 Z M 620 370 C 620 392.089844 602.089844 410 580 410 C 557.910156 410 540 392.089844 540 370 C 540 347.910156 557.910156 330 580 330 C 602.089844 330 620 347.910156 620 370 Z M 620 370 "/>
</clipPath>
<clipPath id="clip-28">
<path clip-rule="nonzero" d="M 180 320 L 393 320 L 393 420 L 180 420 Z M 180 320 "/>
</clipPath>
<clipPath id="clip-29">
<path clip-rule="nonzero" d="M 180 420 L 230 320 L 280 420 M 350 420 L 350 320 L 450 320 L 450 420 Z M 620 370 C 620 392.089844 602.089844 410 580 410 C 557.910156 410 540 392.089844 540 370 C 540 347.910156 557.910156 330 580 330 C 602.089844 330 620 347.910156 620 370 Z M 620 370 "/>
</clipPath>
<clipPath id="clip-30">
<path clip-rule="nonzero" d="M 180 320 L 398 320 L 398 420 L 180 420 Z M 180 320 "/>
</clipPath>
<clipPath id="clip-31">
<path clip-rule="nonzero" d="M 180 420 L 230 320 L 280 420 M 350 420 L 350 320 L 450 320 L 450 420 Z M 620 370 C 620 392.089844 602.089844 410 580 410 C 557.910156 410 540 392.089844 540 370 C 540 347.910156 557.910156 330 580 330 C 602.089844 330 620 347.910156 620 370 Z M 620 370 "/>
</clipPath>
<clipPath id="clip-32">
<path clip-rule="nonzero" d="M 180 320 L 403 320 L 403 420 L 180 420 Z M 180 320 "/>
</clipPath>
<clipPath id="clip-33">
<path clip-rule="nonzero" d="M 180 420 L 230 320 L 280 420 M 350 420 L 350 320 L 450 320 L 450 420 Z M 620 370 C 620 392.089844 602.089844 410 580 410 C 557.910156 410 540 392.089844 540 370 C 540 347.910156 557.910156 330 580 330 C 602.089844 330 620 347.910156 620 370 Z M 620 370 "/>
</clipPath>
<clipPath id="clip-34">
<path clip-rule="nonzero" d="M 180 320 L 408 320 L 408 420 L 180 420 Z M 180 320 "/>
</clipPath>
<clipPath id="clip-35">
<path clip-rule="nonzero" d="M 180 420 L 230 320 L 280 420 M 350 420 L 350 320 L 450 320 L 450 420 Z M 620 370 C 620 392.089844 602.089844 410 580 410 C 557.910156 410 540 392.089844 540 370 C 540 347.910156 557.910156 330 580 330 C 602.089844 330 620 347.910156 620 370 Z M 620 370 "/>
</clipPath>
<clipPath id="clip-36">
<path clip-rule="nonzero" d="M 180 320 L 413 320 L 413 420 L 180 420 Z M 180 320 "/>
</clipPath>
<clipPath id="clip-37">
<path clip-rule="nonzero" d="M 180 420 L 230 320 L 280 420 M 350 420 L 350 320 L 450 320 L 450 420 Z M 620 370 C 620 392.089844 602.089844 410 580 410 C 557.910156 410 540 392.089844 540 370 C 540 347.910156 557.910156 330 580 330 C 602.089844 330 620 347.910156 620 370 Z M 620 370 "/>
</clipPath>
<clipPath id="clip-38">
<path clip-rule="nonzero" d="M 180 320 L 418 320 L 418 420 L 180 420 Z M 180 320 "/>
</clipPath>
<clipPath id="clip-39">
<path clip-rule="nonzero" d="M 180 420 L 230 320 L 280 420 M 350 420 L 350 320 L 450 320 L 450 420 Z M 620 370 C 620 392.089844 602.089844 410 580 410 C 557.910156 410 540 392.089844 540 370 C 540 347.910156 557.910156 330 580 330 C 602.089844 330 620 347.910156 620 370 Z M 620 370 "/>
</clipPath>
<clipPath id="clip-40">
<path clip-rule="nonzero" d="M 180 320 L 423 320 L 423 420 L 180 420 Z M 180 320 "/>
</clipPath>
<clipPath id="clip-41">
<path clip-rule="nonzero" d="M 180 420 L 230 320 L 280 420 M 350 420 L 350 320 L 450 320 L 450 420 Z M 620 370 C 620 392.089844 602.089844 410 580 410 C 557.910156 410 540 392.089844 540 370 C 540 347.910156 557.910156 330 580 330 C 602.089844 330 620 347.910156 620 370 Z M 620 370 "/>
</clipPath>
<clipPath id="clip-42">
<path clip-rule="nonzero" d="M 180 320 L 428 320 L 428 420 L 180 420 Z M 180 320 "/>
</clipPath>
<clipPath id="clip-43">
<path clip-rule="nonzero" d="M 180 420 L 230 320 L 280 420 M 350 420 L 350 320 L 450 320 L 450 420 Z M 620 370 C 620 392.089844 602.089844 410 580 410 C 557.910156 410 540 392.089844 540 370 C 540 347.910156 557.910156 330 580 330 C 602.089844 330 620 347.910156 620 370 Z M 620 370 "/>
</clipPath>
<clipPath id="clip-44">
<path clip-rule="nonzero" d="M 180 320 L 433 320 L 433 420 L 180 420 Z M 180 320 "/>
</clipPath>
<clipPath id="clip-45">
<path clip-rule="nonzero" d="M 180 420 L 230 320 L 280 420 M 350 420 L 350 320 L 450 320 L 450 420 Z M 620 370 C 620 392.089844 602.089844 410 580 410 C 557.910156 410 540 392.089844 540 370 C 540 347.910156 557.910156 330 580 330 C 602.089844 330 620 347.910156 620 370 Z M 620 370 "/>
</clipPath>
<clipPath id="clip-46">
<path clip-rule="nonzero" d="M 180 320 L 438 320 L 438 420 L 180 420 Z M 180 320 "/>
</clipPath>
<clipPath id="clip-47">
<path clip-rule="nonzero" d="M 180 420 L 230 320 L 280 420 M 350 420 L 350 320 L 450 320 L 450 420 Z M 620 370 C 620 392.089844 602.089844 410 580 410 C 557.910156 410 540 392.089844 540 370 C 540 347.910156 557.910156 330 580 330 C 602.089844 330 620 347.910156 620 370 Z M 620 370 "/>
</clipPath>
<clipPath id="clip-48">
<path clip-rule="nonzero" d="M 180 320 L 443 320 L 443 420 L 180 420 Z M 180 320 "/>
</clipPath>
<clipPath id="clip-49">
<path clip-rule="nonzero" d="M 180 420 L 230 320 L 280 420 M 350 420 L 350 320 L 450 320 L 450 420 Z M 620 370 C 620 392.089844 602.089844 410 580 410 C 557.910156 410 540 392.089844 540 370 C 540 347.910156 557.910156 330 580 330 C 602.089844 330 620 347.910156 620 370 Z M 620 370 "/>
</clipPath>
<clipPath id="clip-50">
<path clip-rule="nonzero" d="M 180 320 L 448 320 L 448 420 L 180 420 Z M 180 320 "/>
</clipPath>
<clipPath id="clip-51">
<path clip-rule="nonzero" d="M 180 420 L 230 320 L 280 420 M 350 420 L 350 320 L 450 320 L 450 420 Z M 620 370 C 620 392.089844 602.089844 410 580 410 C 557.910156 410 540 392.089844 540 370 C 540 347.910156 557.910156 330 580 330 C 602.089844 330 620 347.910156 620 370 Z M 620 370 "/>
</clipPath>
<clipPath id="clip-52">
<path clip-rule="nonzero" d="M 180 320 L 453 320 L 453 420 L 180 420 Z M 180 320 "/>
</clipPath>
<clipPath id="clip-53">
<path clip-rule="nonzero" d="M 180 420 L 230 320 L 280 420 M 350 420 L 350 320 L 450 320 L 450 420 Z M 620 370 C 620 392.089844 602.089844 410 580 410 C 557.910156 410 540 392.089844 540 370 C 540 347.910156 557.910156 330 580 330 C 602.089844 330 620 347.910156 620 370 Z M 620 370 "/>
</clipPath>
<clipPath id="clip-54">
<path clip-rule="nonzero" d="M 180 320 L 458 320 L 458 420 L 180 420 Z M 180 320 "/>
</clipPath>
<clipPath id="clip-55">
<path clip-rule="nonzero" d="M 180 420 L 230 320 L 280 420 M 350 420 L 350 320 L 450 320 L 450 420 Z M 620 370 C 620 392.089844 602.089844 410 580 410 C 557.910156 410 540 392.089844 540 370 C 540 347.910156 557.910156 330 580 330 C 602.089844 330 620 347.910156 620 370 Z M 620 370 "/>
</clipPath>
<clipPath id="clip-56">
<path clip-rule="nonzero" d="M 180 320 L 463 320 L 463 420 L 180 420 Z M 180 320 "/>
</clipPath>
<clipPath id="clip-57">
<path clip-rule="nonzero" d="M 180 420 L 230 320 L 280 420 M 350 420 L 350 320 L 450 320 L 450 420 Z M 620 370 C 620 392.089844 602.089844 410 580 410 C 557.910156 410 540 392.089844 540 370 C 540 347.910156 557.910156 330 580 330 C 602.089844 330 620 347.910156 620 370 Z M 620 370 "/>
</clipPath>
<clipPath id="clip-58">
<path clip-rule="nonzero" d="M 180 320 L 468 320 L 468 420 L 180 420 Z M 180 320 "/>
</clipPath>
<clipPath id="clip-59">
<path clip-rule="nonzero" d="M 180 420 L 230 320 L 280 420 M 350 420 L 350 320 L 450 320 L 450 420 Z M 620 370 C 620 392.089844 602.089844 410 580 410 C 557.910156 410 540 392.089844 540 370 C 540 347.910156 557.910156 330 580 330 C 602.089844 330 620 347.910156 620 370 Z M 620 370 "/>
</clipPath>
<clipPath id="clip-60">
<path clip-rule="nonzero" d="M 180 320 L 473 320 L 473 420 L 180 420 Z M 180 320 "/>
</clipPath>
<clipPath id="clip-61">
<path clip-rule="nonzero" d="M 180 420 L 230 320 L 280 420 M 350 420 L 350 320 L 450 320 L 450 420 Z M 620 370 C 620 392.089844 602.089844 410 580 410 C 557.910156 410 540 392.089844 540 370 C 540 347.910156 557.910156 330 580 330 C 602.089844 330 620 347.910156 620 370 Z M 620 370 "/>
</clipPath>
<clipPath id="clip-62">
<path clip-rule="nonzero" d="M 180 320 L 478 320 L 478 420 L 180 420 Z M 180 320 "/>
</clipPath>
<clipPath id="clip-63">
<path clip-rule="nonzero" d="M 180 420 L 230 320 L 280 420 M 350 420 L 350 320 L 450 320 L 450 420 Z M 620 370 C 620 392.089844 602.089844 410 580 410 C 557.910156 410 540 392.089844 540 370 C 540 347.910156 557.910156 330 580 330 C 602.089844 330 620 347.910156 620 370 Z M 620 370 "/>
</clipPath>
<clipPath id="clip-64">
<path clip-rule="nonzero" d="M 180 320 L 483 320 L 483 420 L 180 420 Z M 180 320 "/>
</clipPath>
<clipPath id="clip-65">
<path clip-rule="nonzero" d="M 180 420 L 230 320 L 280 420 M 350 420 L 350 320 L 450 320 L 450 420 Z M 620 370 C 620 392.089844 602.089844 410 580 410 C 557.910156 410 540 392.089844 540 370 C 540 347.910156 557.910156 330 580 330 C 602.089844 330 620 347.910156 620 370 Z M 620 370 "/>
</clipPath>
<clipPath id="clip-66">
<path clip-rule="nonzero" d="M 180 320 L 488 320 L 488 420 L 180 420 Z M 180 320 "/>
</clipPath>
<clipPath id="clip-67">
<path clip-rule="nonzero" d="M 180 420 L 230 320 L 280 420 M 350 420 L 350 320 L 450 320 L 450 420 Z M 620 370 C 620 392.089844 602.089844 410 580 410 C 557.910156 410 540 392.089844 540 370 C 540 347.910156 557.910156 330 580 330 C 602.089844 330 620 347.910156 620 370 Z M 620 370 "/>
</clipPath>
<clipPath id="clip-68">
<path clip-rule="nonzero" d="M 180 320 L 493 320 L 493 420 L 180 420 Z M 180 320 "/>
</clipPath>
<clipPath id="clip-69">
<path clip-rule="nonzero" d="M 180 420 L 230 320 L 280 420 M 350 420 L 350 320 L 450 320 L 450 420 Z M 620 370 C 620 392.089844 602.089844 410 580 410 C 557.910156 410 540 392.089844 540 370 C 540 347.910156 557.910156 330 580 330 C 602.089844 330 620 347.910156 620 370 Z M 620 370 "/>
</clipPath>
<clipPath id="clip-70">
<path clip-rule="nonzero" d="M 180 320 L 498 320 L 498 420 L 180 420 Z M 180 320 "/>
</clipPath>
<clipPath id="clip-71">
<path clip-rule="nonzero" d="M 180 420 L 230 320 L 280 420 M 350 420 L 350 320 L 450 320 L 450 420 Z M 620 370 C 620 392.089844 602.089844 410 580 410 C 557.910156 410 540 392.089844 540 370 C 540 347.910156 557.910156 330 580 330 C 602.089844 330 620 347.910156 620 370 Z M 620 370 "/>
</clipPath>
<clipPath id="clip-72">
<path clip-rule="nonzero" d="M 180 320 L 503 320 L 503 420 L 180 420 Z M 180 320 "/>
</clipPath>
<clipPath id="clip-73">
<path clip-rule="nonzero" d="M 180 420 L 230 320 L 280 420 M 350 420 L 350 320 L 450 320 L 450 420 Z M 620 370 C 620 392.089844 602.089844 410 580 410 C 557.910156 410 540 392.089844 540 370 C 540 347.910156 557.910156 330 580 330 C 602.089844 330 620 347.910156 620 370 Z M 620 370 "/>
</clipPath>
<clipPath id="clip-74">
<path clip-rule="nonzero" d="M 180 320 L 508 320 L 508 420 L 180 420 Z M 180 320 "/>
</clipPath>
<clipPath id="clip-75">
<path clip-rule="nonzero" d="M 180 420 L 230 320 L 280 420 M 350 420 L 350 320 L 450 320 L 450 420 Z M 620 370 C 620 392.089844 602.089844 410 580 410 C 557.910156 410 540 392.089844 540 370 C 540 347.910156 557.910156 330 580 330 C 602.089844 330 620 347.910156 620 370 Z M 620 370 "/>
</clipPath>
<clipPath id="clip-76">
<path clip-rule="nonzero" d="M 180 320 L 513 320 L 513 420 L 180 420 Z M 180 320 "/>
</clipPath>
<clipPath id="clip-77">
<path clip-rule="nonzero" d="M 180 420 L 230 320 L 280 420 M 350 420 L 350 320 L 450 320 L 450 420 Z M 620 370 C 620 392.089844 602.089844 410 580 410 C 557.910156 410 540 392.089844 540 370 C 540 347.910156 557.910156 330 580 330 C 602.089844 330 620 347.910156 620 370 Z M 620 370 "/>
</clipPath>
<clipPath id="clip-78">
<path clip-rule="nonzero" d="M 180 320 L 518 320 L 518 420 L 180 420 Z M 180 320 "/>
</clipPath>
<clipPath id="clip-79">
<path clip-rule="nonzero" d="M 180 420 L 230 320 L 280 420 M 350 420 L 350 320 L 450 320 L 450 420 Z M 620 370 C 620 392.089844 602.089844 410 580 410 C 557.910156 410 540 392.089844 540 370 C 540 347.910156 557.910156 330 580 330 C 602.089844 330 620 347.910156 620 370 Z M 620 370 "/>
</clipPath>
<clipPath id="clip-80">
<path clip-rule="nonzero" d="M 180 320 L 523 320 L 523 420 L 180 420 Z M 180 320 "/>
</clipPath>
<clipPath id="clip-81">
<path clip-rule="nonzero" d="M 180 420 L 230 320 L 280 420 M 350 420 L 350 320 L 450 320 L 450 420 Z M 620 370 C 620 392.089844 602.089844 410 580 410 C 557.910156 410 540 392.089844 540 370 C 540 347.910156 557.910156 330 580 330 C 602.089844 330 620 347.910156 620 370 Z M 620 370 "/>
</clipPath>
<clipPath id="clip-82">
<path clip-rule="nonzero" d="M 182 320 L 528 320 L 528 420 L 182 420 Z M 182 320 "/>
</clipPath>
<clipPath id="clip-83">
<path clip-rule="nonzero" d="M 180 420 L 230 320 L 280 420 M 350 420 L 350 320 L 450 320 L 450 420 Z M 620 370 C 620 392.089844 602.089844 410 580 410 C 557.910156 410 540 392.089844 540 370 C 540 347.910156 557.910156 330 580 330 C 602.089844 330 620 347.910156 620 370 Z M 620 370 "/>
</clipPath>
<clipPath id="clip-84">
<path clip-rule="nonzero" d="M 187 320 L 533 320 L 533 420 L 187 420 Z M 187 320 "/>
</clipPath>
<clipPath id="clip-85">
<path clip-rule="nonzero" d="M 180 420 L 230 320 L 280 420 M 350 420 L 350 320 L 450 320 L 450 420 Z M 620 370 C 620 392.089844 602.089844 410 580 410 C 557.910156 410 540 392.089844 540 370 C 540 347.910156 557.910156 330 580 330 C 602.089844 330 620 347.910156 620 370 Z M 620 370 "/>
</clipPath>
<clipPath id="clip-86">
<path clip-rule="nonzero" d="M 192 320 L 538 320 L 538 420 L 192 420 Z M 192 320 "/>
</clipPath>
<clipPath id="clip-87">
<path clip-rule="nonzero" d="M 180 420 L 230 320 L 280 420 M 350 420 L 350 320 L 450 320 L 450 420 Z M 620 370 C 620 392.089844 602.089844 410 580 410 C 557.910156 410 540 392.089844 540 370 C 540 347.910156 557.910156 330 580 330 C 602.089844 330 620 347.910156 620 370 Z M 620 370 "/>
</clipPath>
<clipPath id="clip-88">
<path clip-rule="nonzero" d="M 197 320 L 543 320 L 543 420 L 197 420 Z M 197 320 "/>
</clipPath>
<clipPath id="clip-89">
<path clip-rule="nonzero" d="M 180 420 L 230 320 L 280 420 M 350 420 L 350 320 L 450 320 L 450 420 Z M 620 370 C 620 392.089844 602.089844 410 580 410 C 557.910156 410 540 392.089844 540 370 C 540 347.910156 557.910156 330 580 330 C 602.089844 330 620 347.910156 620 370 Z M 620 370 "/>
</clipPath>
<clipPath id="clip-90">
<path clip-rule="nonzero" d="M 202 320 L 548 320 L 548 420 L 202 420 Z M 202 320 "/>
</clipPath>
<clipPath id="clip-91">
<path clip-rule="nonzero" d="M 180 420 L 230 320 L 280 420 M 350 420 L 350 320 L 450 320 L 450 420 Z M 620 370 C 620 392.089844 602.089844 410 580 410 C 557.910156 410 540 392.089844 540 370 C 540 347.910156 557.910156 330 580 330 C 602.089844 330 620 347.910156 620 370 Z M 620 370 "/>
</clipPath>
<clipPath id="clip-92">
<path clip-rule="nonzero" d="M 207 320 L 553 320 L 553 420 L 207 420 Z M 207 320 "/>
</clipPath>
<clipPath id="clip-93">
<path clip-rule="nonzero" d="M 180 420 L 230 320 L 280 420 M 350 420 L 350 320 L 450 320 L 450 420 Z M 620 370 C 620 392.089844 602.089844 410 580 410 C 557.910156 410 540 392.089844 540 370 C 540 347.910156 557.910156 330 580 330 C 602.089844 330 620 347.910156 620 370 Z M 620 370 "/>
</clipPath>
<clipPath id="clip-94">
<path clip-rule="nonzero" d="M 212 320 L 558 320 L 558 420 L 212 420 Z M 212 320 "/>
</clipPath>
<clipPath id="clip-95">
<path clip-rule="nonzero" d="M 180 420 L 230 320 L 280 420 M 350 420 L 350 320 L 450 320 L 450 420 Z M 620 370 C 620 392.089844 602.089844 410 580 410 C 557.910156 410 540 392.089844 540 370 C 540 347.910156 557.910156 330 580 330 C 602.089844 330 620 347.910156 620 370 Z M 620 370 "/>
</clipPath>
<clipPath id="clip-96">
<path clip-rule="nonzero" d="M 217 320 L 563 320 L 563 420 L 217 420 Z M 217 320 "/>
</clipPath>
<clipPath id="clip-97">
<path clip-rule="nonzero" d="M 180 420 L 230 320 L 280 420 M 350 420 L 350 320 L 450 320 L 450 420 Z M 620 370 C 620 392.089844 602.089844 410 580 410 C 557.910156 410 540 392.089844 540 370 C 540 347.910156 557.910156 330 580 330 C 602.089844 330 620 347.910156 620 370 Z M 620 370 "/>
</clipPath>
<clipPath id="clip-98">
<path clip-rule="nonzero" d="M 222 320 L 568 320 L 568 420 L 222 420 Z M 222 320 "/>
</clipPath>
<clipPath id="clip-99">
<path clip-rule="nonzero" d="M 180 420 L 230 320 L 280 420 M 350 420 L 350 320 L 450 320 L 450 420 Z M 620 370 C 620 392.089844 602.089844 410 580 410 C 557.910156 410 540 392.089844 540 370 C 540 347.910156 557.910156 330 580 330 C 602.089844 330 620 347.910156 620 370 Z M 620 370 "/>
</clipPath>
<clipPath id="clip-100">
<path clip-rule="nonzero" d="M 227 320 L 573 320 L 573 420 L 227 420 Z M 227 320 "/>
</clipPath>
<clipPath id="clip-101">
<path clip-rule="nonzero" d="M 180 420 L 230 320 L 280 420 M 350 420 L 350 320 L 450 320 L 450 420 Z M 620 370 C 620 392.089844 602.089844 410 580 410 C 557.910156 410 540 392.089844 540 370 C 540 347.910156 557.910156 330 580 330 C 602.089844 330 620 347.910156 620 370 Z M 620 370 "/>
</clipPath>
<clipPath id="clip-102">
<path clip-rule="nonzero" d="M 232 320 L 578 320 L 578 420 L 232 420 Z M 232 320 "/>
</clipPath>
<clipPath id="clip-103">
<path clip-rule="nonzero" d="M 180 420 L 230 320 L 280 420 M 350 420 L 350 320 L 450 320 L 450 420 Z M 620 370 C 620 392.089844 602.089844 410 580 410 C 557.910156 410 540 392.089844 540 370 C 540 347.910156 557.910156 330 580 330 C 602.089844 330 620 347.910156 620 370 Z M 620 370 "/>
</clipPath>
<clipPath id="clip-104">
<path clip-rule="nonzero" d="M 237 320 L 583 320 L 583 420 L 237 420 Z M 237 320 "/>
</clipPath>
<clipPath id="clip-105">
<path clip-rule="nonzero" d="M 180 420 L 230 320 L 280 420 M 350 420 L 350 320 L 450 320 L 450 420 Z M 620 370 C 620 392.089844 602.089844 410 580 410 C 557.910156 410 540 392.089844 540 370 C 540 347.910156 557.910156 330 580 330 C 602.089844 330 620 347.910156 620 370 Z M 620 370 "/>
</clipPath>
<clipPath id="clip-106">
<path clip-rule="nonzero" d="M 242 320 L 588 320 L 588 420 L 242 420 Z M 242 320 "/>
</clipPath>
<clipPath id="clip-107">
<path clip-rule="nonzero" d="M 180 420 L 230 320 L 280 420 M 350 420 L 350 320 L 450 320 L 450 420 Z M 620 370 C 620 392.089844 602.089844 410 580 410 C 557.910156 410 540 392.089844 540 370 C 540 347.910156 557.910156 330 580 330 C 602.089844 330 620 347.910156 620 370 Z M 620 370 "/>
</clipPath>
<clipPath id="clip-108">
<path clip-rule="nonzero" d="M 247 320 L 593 320 L 593 420 L 247 420 Z M 247 320 "/>
</clipPath>
<clipPath id="clip-109">
<path clip-rule="nonzero" d="M 180 420 L 230 320 L 280 420 M 350 420 L 350 320 L 450 320 L 450 420 Z M 620 370 C 620 392.089844 602.089844 410 580 410 C 557.910156 410 540 392.089844 540 370 C 540 347.910156 557.910156 330 580 330 C 602.089844 330 620 347.910156 620 370 Z M 620 370 "/>
</clipPath>
<clipPath id="clip-110">
<path clip-rule="nonzero" d="M 252 320 L 598 320 L 598 420 L 252 420 Z M 252 320 "/>
</clipPath>
<clipPath id="clip-111">
<path clip-rule="nonzero" d="M 180 420 L 230 320 L 280 420 M 350 420 L 350 320 L 450 320 L 450 420 Z M 620 370 C 620 392.089844 602.089844 410 580 410 C 557.910156 410 540 392.089844 540 370 C 540 347.910156 557.910156 330 580 330 C 602.089844 330 620 347.910156 620 370 Z M 620 370 "/>
</clipPath>
<clipPath id="clip-112">
<path clip-rule="nonzero" d="M 257 320 L 603 320 L 603 420 L 257 420 Z M 257 320 "/>
</clipPath>
<clipPath id="clip-113">
<path clip-rule="nonzero" d="M 180 420 L 230 320 L 280 420 M 350 420 L 350 320 L 450 320 L 450 420 Z M 620 370 C 620 392.089844 602.089844 410 580 410 C 557.910156 410 540 392.089844 540 370 C 540 347.910156 557.910156 330 580 330 C 602.089844 330 620 347.910156 620 370 Z M 620 370 "/>
</clipPath>
<clipPath id="clip-114">
<path clip-rule="nonzero" d="M 262 320 L 608 320 L 608 420 L 262 420 Z M 262 320 "/>
</clipPath>
<clipPath id="clip-115">
<path clip-rule="nonzero" d="M 180 420 L 230 320 L 280 420 M 350 420 L 350 320 L 450 320 L 450 420 Z M 620 370 C 620 392.089844 602.089844 410 580 410 C 557.910156 410 540 392.089844 540 370 C 540 347.910156 557.910156 330 580 330 C 602.089844 330 620 347.910156 620 370 Z M 620 370 "/>
</clipPath>
<clipPath id="clip-116">
<path clip-rule="nonzero" d="M 267 320 L 613 320 L 613 420 L 267 420 Z M 267 320 "/>
</clipPath>
<clipPath id="clip-117">
<path clip-rule="nonzero" d="M 180 420 L 230 320 L 280 420 M 350 420 L 350 320 L 450 320 L 450 420 Z M 620 370 C 620 392.089844 602.089844 410 580 410 C 557.910156 410 540 392.089844 540 370 C 540 347.910156 557.910156 330 580 330 C 602.089844 330 620 347.910156 620 370 Z M 620 370 "/>
</clipPath>
<clipPath id="clip-118">
<path clip-rule="nonzero" d="M 272 320 L 618 320 L 618 420 L 272 420 Z M 272 320 "/>
</clipPath>
<clipPath id="clip-119">
<path clip-rule="nonzero" d="M 180 420 L 230 320 L 280 420 M 350 420 L 350 320 L 450 320 L 450 420 Z M 620 370 C 620 392.089844 602.089844 410 580 410 C 557.910156 410 540 392.089844 540 370 C 540 347.910156 557.910156 330 580 330 C 602.089844 330 620 347.910156 620 370 Z M 620 370 "/>
</clipPath>
<clipPath id="clip-120">
<path clip-rule="nonzero" d="M 277 320 L 620 320 L 620 420 L 277 420 Z M 277 320 "/>
</clipPath>
<clipPath id="clip-121">
<path clip-rule="nonzero" d="M 180 420 L 230 320 L 280 420 M 350 420 L 350 320 L 450 320 L 450 420 Z M 620 370 C 620 392.089844 602.089844 410 580 410 C 557.910156 410 540 392.089844 540 370 C 540 347.910156 557.910156 330 580 330 C 602.089844 330 620 347.910156 620 370 Z M 620 370 "/>
</clipPath>
<clipPath id="clip-122">
<path clip-rule="nonzero" d="M 282 320 L 620 320 L 620 420 L 282 420 Z M 282 320 "/>
</clipPath>
<clipPath id="clip-123">
<path clip-rule="nonzero" d="M 180 420 L 230 320 L 280 420 M 350 420 L 350 320 L 450 320 L 450 420 Z M 620 370 C 620 392.089844 602.089844 410 580 410 C 557.910156 410 540 392.089844 540 370 C 540 347.910156 557.910156 330 580 330 C 602.089844 330 620 347.910156 620 370 Z M 620 370 "/>
</clipPath>
<clipPath id="clip-124">
<path clip-rule="nonzero" d="M 287 320 L 620 320 L 620 420 L 287 420 Z M 287 320 "/>
</clipPath>
<clipPath id="clip-125">
<path clip-rule="nonzero" d="M 180 420 L 230 320 L 280 420 M 350 420 L 350 320 L 450 320 L 450 420 Z M 620 370 C 620 392.089844 602.089844 410 580 410 C 557.910156 410 540 392.089844 540 370 C 540 347.910156 557.910156 330 580 330 C 602.089844 330 620 347.910156 620 370 Z M 620 370 "/>
</clipPath>
<clipPath id="clip-126">
<path clip-rule="nonzero" d="M 292 320 L 620 320 L 620 420 L 292 420 Z M 292 320 "/>
</clipPath>
<clipPath id="clip-127">
<path clip-rule="nonzero" d="M 180 420 L 230 320 L 280 420 M 350 420 L 350 320 L 450 320 L 450 420 Z M 620 370 C 620 392.089844 602.089844 410 580 410 C 557.910156 410 540 392.089844 540 370 C 540 347.910156 557.910156 330 580 330 C 602.089844 330 620 347.910156 620 370 Z M 620 370 "/>
</clipPath>
<clipPath id="clip-128">
<path clip-rule="nonzero" d="M 297 320 L 620 320 L 620 420 L 297 420 Z M 297 320 "/>
</clipPath>
<clipPath id="clip-129">
<path clip-rule="nonzero" d="M 180 420 L 230 320 L 280 420 M 350 420 L 350 320 L 450 320 L 450 420 Z M 620 370 C 620 392.089844 602.089844 410 580 410 C 557.910156 410 540 392.089844 540 370 C 540 347.910156 557.910156 330 580 330 C 602.089844 330 620 347.910156 620 370 Z M 620 370 "/>
</clipPath>
<clipPath id="clip-130">
<path clip-rule="nonzero" d="M 302 320 L 620 320 L 620 420 L 302 420 Z M 302 320 "/>
</clipPath>
<clipPath id="clip-131">
<path clip-rule="nonzero" d="M 180 420 L 230 320 L 280 420 M 350 420 L 350 320 L 450 320 L 450 420 Z M 620 370 C 620 392.089844 602.089844 410 580 410 C 557.910156 410 540 392.089844 540 370 C 540 347.910156 557.910156 330 580 330 C 602.089844 330 620 347.910156 620 370 Z M 620 370 "/>
</clipPath>
<clipPath id="clip-132">
<path clip-rule="nonzero" d="M 307 320 L 620 320 L 620 420 L 307 420 Z M 307 320 "/>
</clipPath>
<clipPath id="clip-133">
<path clip-rule="nonzero" d="M 180 420 L 230 320 L 280 420 M 350 420 L 350 320 L 450 320 L 450 420 Z M 620 370 C 620 392.089844 602.089844 410 580 410 C 557.910156 410 540 392.089844 540 370 C 540 347.910156 557.910156 330 580 330 C 602.089844 330 620 347.910156 620 370 Z M 620 370 "/>
</clipPath>
<clipPath id="clip-134">
<path clip-rule="nonzero" d="M 312 320 L 620 320 L 620 420 L 312 420 Z M 312 320 "/>
</clipPath>
<clipPath id="clip-135">
<path clip-rule="nonzero" d="M 180 420 L 230 320 L 280 420 M 350 420 L 350 320 L 450 320 L 450 420 Z M 620 370 C 620 392.089844 602.089844 410 580 410 C 557.910156 410 540 392.089844 540 370 C 540 347.910156 557.910156 330 580 330 C 602.089844 330 620 347.910156 620 370 Z M 620 370 "/>
</clipPath>
<clipPath id="clip-136">
<path clip-rule="nonzero" d="M 317 320 L 620 320 L 620 420 L 317 420 Z M 317 320 "/>
</clipPath>
<clipPath id="clip-137">
<path clip-rule="nonzero" d="M 180 420 L 230 320 L 280 420 M 350 420 L 350 320 L 450 320 L 450 420 Z M 620 370 C 620 392.089844 602.089844 410 580 410 C 557.910156 410 540 392.089844 540 370 C 540 347.910156 557.910156 330 580 330 C 602.089844 330 620 347.910156 620 370 Z M 620 370 "/>
</clipPath>
<clipPath id="clip-138">
<path clip-rule="nonzero" d="M 322 320 L 620 320 L 620 420 L 322 420 Z M 322 320 "/>
</clipPath>
<clipPath id="clip-139">
<path clip-rule="nonzero" d="M 180 420 L 230 320 L 280 420 M 350 420 L 350 320 L 450 320 L 450 420 Z M 620 370 C 620 392.089844 602.089844 410 580 410 C 557.910156 410 540 392.089844 540 370 C 540 347.910156 557.910156 330 580 330 C 602.089844 330 620 347.910156 620 370 Z M 620 370 "/>
</clipPath>
<clipPath id="clip-140">
<path clip-rule="nonzero" d="M 327 320 L 620 320 L 620 420 L 327 420 Z M 327 320 "/>
</clipPath>
<clipPath id="clip-141">
<path clip-rule="nonzero" d="M 180 420 L 230 320 L 280 420 M 350 420 L 350 320 L 450 320 L 450 420 Z M 620 370 C 620 392.089844 602.089844 410 580 410 C 557.910156 410 540 392.089844 540 370 C 540 347.910156 557.910156 330 580 330 C 602.089844 330 620 347.910156 620 370 Z M 620 370 "/>
</clipPath>
<clipPath id="clip-142">
<path clip-rule="nonzero" d="M 332 320 L 620 320 L 620 420 L 332 420 Z M 332 320 "/>
</clipPath>
<clipPath id="clip-143">
<path clip-rule="nonzero" d="M 180 420 L 230 320 L 280 420 M 350 420 L 350 320 L 450 320 L 450 420 Z M 620 370 C 620 392.089844 602.089844 410 580 410 C 557.910156 410 540 392.089844 540 370 C 540 347.910156 557.910156 330 580 330 C 602.089844 330 620 347.910156 620 370 Z M 620 370 "/>
</clipPath>
<clipPath id="clip-144">
<path clip-rule="nonzero" d="M 337 320 L 620 320 L 620 420 L 337 420 Z M 337 320 "/>
</clipPath>
<clipPath id="clip-145">
<path clip-rule="nonzero" d="M 180 420 L 230 320 L 280 420 M 350 420 L 350 320 L 450 320 L 450 420 Z M 620 370 C 620 392.089844 602.089844 410 580 410 C 557.910156 410 540 392.089844 540 370 C 540 347.910156 557.910156 330 580 330 C 602.089844 330 620 347.910156 620 370 Z M 620 370 "/>
</clipPath>
<clipPath id="clip-146">
<path clip-rule="nonzero" d="M 342 320 L 620 320 L 620 420 L 342 420 Z M 342 320 "/>
</clipPath>
<clipPath id="clip-147">
<path clip-rule="nonzero" d="M 180 420 L 230 320 L 280 420 M 350 420 L 350 320 L 450 320 L 450 420 Z M 620 370 C 620 392.089844 602.089844 410 580 410 C 557.910156 410 540 392.089844 540 370 C 540 347.910156 557.910156 330 580 330 C 602.089844 330 620 347.910156 620 370 Z M 620 370 "/>
</clipPath>
<clipPath id="clip-148">
<path clip-rule="nonzero" d="M 347 320 L 620 320 L 620 420 L 347 420 Z M 347 320 "/>
</clipPath>
<clipPath id="clip-149">
<path clip-rule="nonzero" d="M 180 420 L 230 320 L 280 420 M 350 420 L 350 320 L 450 320 L 450 420 Z M 620 370 C 620 392.089844 602.089844 410 580 410 C 557.910156 410 540 392.089844 540 370 C 540 347.910156 557.910156 330 580 330 C 602.089844 330 620 347.910156 620 370 Z M 620 370 "/>
</clipPath>
<clipPath id="clip-150">
<path clip-rule="nonzero" d="M 352 320 L 620 320 L 620 420 L 352 420 Z M 352 320 "/>
</clipPath>
<clipPath id="clip-151">
<path clip-rule="nonzero" d="M 180 420 L 230 320 L 280 420 M 350 420 L 350 320 L 450 320 L 450 420 Z M 620 370 C 620 392.089844 602.089844 410 580 410 C 557.910156 410 540 392.089844 540 370 C 540 347.910156 557.910156 330 580 330 C 602.089844 330 620 347.910156 620 370 Z M 620 370 "/>
</clipPath>
<clipPath id="clip-152">
<path clip-rule="nonzero" d="M 357 320 L 620 320 L 620 420 L 357 420 Z M 357 320 "/>
</clipPath>
<clipPath id="clip-153">
<path clip-rule="nonzero" d="M 180 420 L 230 320 L 280 420 M 350 420 L 350 320 L 450 320 L 450 420 Z M 620 370 C 620 392.089844 602.089844 410 580 410 C 557.910156 410 540 392.089844 540 370 C 540 347.910156 557.910156 330 580 330 C 602.089844 330 620 347.910156 620 370 Z M 620 370 "/>
</clipPath>
<clipPath id="clip-154">
<path clip-rule="nonzero" d="M 362 320 L 620 320 L 620 420 L 362 420 Z M 362 320 "/>
</clipPath>
<clipPath id="clip-155">
<path clip-rule="nonzero" d="M 180 420 L 230 320 L 280 420 M 350 420 L 350 320 L 450 320 L 450 420 Z M 620 370 C 620 392.089844 602.089844 410 580 410 C 557.910156 410 540 392.089844 540 370 C 540 347.910156 557.910156 330 580 330 C 602.089844 330 620 347.910156 620 370 Z M 620 370 "/>
</clipPath>
<clipPath id="clip-156">
<path clip-rule="nonzero" d="M 367 320 L 620 320 L 620 420 L 367 420 Z M 367 320 "/>
</clipPath>
<clipPath id="clip-157">
<path clip-rule="nonzero" d="M 180 420 L 230 320 L 280 420 M 350 420 L 350 320 L 450 320 L 450 420 Z M 620 370 C 620 392.089844 602.089844 410 580 410 C 557.910156 410 540 392.089844 540 370 C 540 347.910156 557.910156 330 580 330 C 602.089844 330 620 347.910156 620 370 Z M 620 370 "/>
</clipPath>
<clipPath id="clip-158">
<path clip-rule="nonzero" d="M 372 320 L 620 320 L 620 420 L 372 420 Z M 372 320 "/>
</clipPath>
<clipPath id="clip-159">
<path clip-rule="nonzero" d="M 180 420 L 230 320 L 280 420 M 350 420 L 350 320 L 450 320 L 450 420 Z M 620 370 C 620 392.089844 602.089844 410 580 410 C 557.910156 410 540 392.089844 540 370 C 540 347.910156 557.910156 330 580 330 C 602.089844 330 620 347.910156 620 370 Z M 620 370 "/>
</clipPath>
<clipPath id="clip-160">
<path clip-rule="nonzero" d="M 377 320 L 620 320 L 620 420 L 377 420 Z M 377 320 "/>
</clipPath>
<clipPath id="clip-161">
<path clip-rule="nonzero" d="M 180 420 L 230 320 L 280 420 M 350 420 L 350 320 L 450 320 L 450 420 Z M 620 370 C 620 392.089844 602.089844 410 580 410 C 557.910156 410 540 392.089844 540 370 C 540 347.910156 557.910156 330 580 330 C 602.089844 330 620 347.910156 620 370 Z M 620 370 "/>
</clipPath>
<clipPath id="clip-162">
<path clip-rule="nonzero" d="M 382 320 L 620 320 L 620 420 L 382 420 Z M 382 320 "/>
</clipPath>
<clipPath id="clip-163">
<path clip-rule="nonzero" d="M 180 420 L 230 320 L 280 420 M 350 420 L 350 320 L 450 320 L 450 420 Z M 620 370 C 620 392.089844 602.089844 410 580 410 C 557.910156 410 540 392.089844 540 370 C 540 347.910156 557.910156 330 580 330 C 602.089844 330 620 347.910156 620 370 Z M 620 370 "/>
</clipPath>
<clipPath id="clip-164">
<path clip-rule="nonzero" d="M 387 320 L 620 320 L 620 420 L 387 420 Z M 387 320 "/>
</clipPath>
<clipPath id="clip-165">
<path clip-rule="nonzero" d="M 180 420 L 230 320 L 280 420 M 350 420 L 350 320 L 450 320 L 450 420 Z M 620 370 C 620 392.089844 602.089844 410 580 410 C 557.910156 410 540 392.089844 540 370 C 540 347.910156 557.910156 330 580 330 C 602.089844 330 620 347.910156 620 370 Z M 620 370 "/>
</clipPath>
<clipPath id="clip-166">
<path clip-rule="nonzero" d="M 392 320 L 620 320 L 620 420 L 392 420 Z M 392 320 "/>
</clipPath>
<clipPath id="clip-167">
<path clip-rule="nonzero" d="M 180 420 L 230 320 L 280 420 M 350 420 L 350 320 L 450 320 L 450 420 Z M 620 370 C 620 392.089844 602.089844 410 580 410 C 557.910156 410 540 392.089844 540 370 C 540 347.910156 557.910156 330 580 330 C 602.089844 330 620 347.910156 620 370 Z M 620 370 "/>
</clipPath>
<clipPath id="clip-168">
<path clip-rule="nonzero" d="M 397 320 L 620 320 L 620 420 L 397 420 Z M 397 320 "/>
</clipPath>
<clipPath id="clip-169">
<path clip-rule="nonzero" d="M 180 420 L 230 320 L 280 420 M 350 420 L 350 320 L 450 320 L 450 420 Z M 620 370 C 620 392.089844 602.089844 410 580 410 C 557.910156 410 540 392.089844 540 370 C 540 347.910156 557.910156 330 580 330 C 602.089844 330 620 347.910156 620 370 Z M 620 370 "/>
</clipPath>
<clipPath id="clip-170">
<path clip-rule="nonzero" d="M 402 320 L 620 320 L 620 420 L 402 420 Z M 402 320 "/>
</clipPath>
<clipPath id="clip-171">
<path clip-rule="nonzero" d="M 180 420 L 230 320 L 280 420 M 350 420 L 350 320 L 450 320 L 450 420 Z M 620 370 C 620 392.089844 602.089844 410 580 410 C 557.910156 410 540 392.089844 540 370 C 540 347.910156 557.910156 330 580 330 C 602.089844 330 620 347.910156 620 370 Z M 620 370 "/>
</clipPath>
<clipPath id="clip-172">
<path clip-rule="nonzero" d="M 407 320 L 620 320 L 620 420 L 407 420 Z M 407 320 "/>
</clipPath>
<clipPath id="clip-173">
<path clip-rule="nonzero" d="M 180 420 L 230 320 L 280 420 M 350 420 L 350 320 L 450 320 L 450 420 Z M 620 370 C 620 392.089844 602.089844 410 580 410 C 557.910156 410 540 392.089844 540 370 C 540 347.910156 557.910156 330 580 330 C 602.089844 330 620 347.910156 620 370 Z M 620 370 "/>
</clipPath>
<clipPath id="clip-174">
<path clip-rule="nonzero" d="M 412 320 L 620 320 L 620 420 L 412 420 Z M 412 320 "/>
</clipPath>
<clipPath id="clip-175">
<path clip-rule="nonzero" d="M 180 420 L 230 320 L 280 420 M 350 420 L 350 320 L 450 320 L 450 420 Z M 620 370 C 620 392.089844 602.089844 410 580 410 C 557.910156 410 540 392.089844 540 370 C 540 347.910156 557.910156 330 580 330 C 602.089844 330 620 347.910156 620 370 Z M 620 370 "/>
</clipPath>
<clipPath id="clip-176">
<path clip-rule="nonzero" d="M 417 320 L 620 320 L 620 420 L 417 420 Z M 417 320 "/>
</clipPath>
<clipPath id="clip-177">
<path clip-rule="nonzero" d="M 180 420 L 230 320 L 280 420 M 350 420 L 350 320 L 450 320 L 450 420 Z M 620 370 C 620 392.089844 602.089844 410 580 410 C 557.910156 410 540 392.089844 540 370 C 540 347.910156 557.910156 330 580 330 C 602.089844 330 620 347.910156 620 370 Z M 620 370 "/>
</clipPath>
<clipPath id="clip-178">
<path clip-rule="nonzero" d="M 422 320 L 620 320 L 620 420 L 422 420 Z M 422 320 "/>
</clipPath>
<clipPath id="clip-179">
<path clip-rule="nonzero" d="M 180 420 L 230 320 L 280 420 M 350 420 L 350 320 L 450 320 L 450 420 Z M 620 370 C 620 392.089844 602.089844 410 580 410 C 557.910156 410 540 392.089844 540 370 C 540 347.910156 557.910156 330 580 330 C 602.089844 330 620 347.910156 620 370 Z M 620 370 "/>
</clipPath>
<clipPath id="clip-180">
<path clip-rule="nonzero" d="M 427 320 L 620 320 L 620 420 L 427 420 Z M 427 320 "/>
</clipPath>
<clipPath id="clip-181">
<path clip-rule="nonzero" d="M 180 420 L 230 320 L 280 420 M 350 420 L 350 320 L 450 320 L 450 420 Z M 620 370 C 620 392.089844 602.089844 410 580 410 C 557.910156 410 540 392.089844 540 370 C 540 347.910156 557.910156 330 580 330 C 602.089844 330 620 347.910156 620 370 Z M 620 370 "/>
</clipPath>
<clipPath id="clip-182">
<path clip-rule="nonzero" d="M 432 320 L 620 320 L 620 420 L 432 420 Z M 432 320 "/>
</clipPath>
<clipPath id="clip-183">
<path clip-rule="nonzero" d="M 180 420 L 230 320 L 280 420 M 350 420 L 350 320 L 450 320 L 450 420 Z M 620 370 C 620 392.089844 602.089844 410 580 410 C 557.910156 410 540 392.089844 540 370 C 540 347.910156 557.910156 330 580 330 C 602.089844 330 620 347.910156 620 370 Z M 620 370 "/>
</clipPath>
<clipPath id="clip-184">
<path clip-rule="nonzero" d="M 437 320 L 620 320 L 620 420 L 437 420 Z M 437 320 "/>
</clipPath>
<clipPath id="clip-185">
<path clip-rule="nonzero" d="M 180 420 L 230 320 L 280 420 M 350 420 L 350 320 L 450 320 L 450 420 Z M 620 370 C 620 392.089844 602.089844 410 580 410 C 557.910156 410 540 392.089844 540 370 C 540 347.910156 557.910156 330 580 330 C 602.089844 330 620 347.910156 620 370 Z M 620 370 "/>
</clipPath>
<clipPath id="clip-186">
<path clip-rule="nonzero" d="M 442 320 L 620 320 L 620 420 L 442 420 Z M 442 320 "/>
</clipPath>
<clipPath id="clip-187">
<path clip-rule="nonzero" d="M 180 420 L 230 320 L 280 420 M 350 420 L 350 320 L 450 320 L 450 420 Z M 620 370 C 620 392.089844 602.089844 410 580 410 C 557.910156 410 540 392.089844 540 370 C 540 347.910156 557.910156 330 580 330 C 602.089844 330 620 347.910156 620 370 Z M 620 370 "/>
</clipPath>
<clipPath id="clip-188">
<path clip-rule="nonzero" d="M 447 320 L 620 320 L 620 420 L 447 420 Z M 447 320 "/>
</clipPath>
<clipPath id="clip-189">
<path clip-rule="nonzero" d="M 180 420 L 230 320 L 280 420 M 350 420 L 350 320 L 450 320 L 450 420 Z M 620 370 C 620 392.089844 602.089844 410 580 410 C 557.910156 410 540 392.089844 540 370 C 540 347.910156 557.910156 330 580 330 C 602.089844 330 620 347.910156 620 370 Z M 620 370 "/>
</clipPath>
<clipPath id="clip-190">
<path clip-rule="nonzero" d="M 452 320 L 620 320 L 620 420 L 452 420 Z M 452 320 "/>
</clipPath>
<clipPath id="clip-191">
<path clip-rule="nonzero" d="M 180 420 L 230 320 L 280 420 M 350 420 L 350 320 L 450 320 L 450 420 Z M 620 370 C 620 392.089844 602.089844 410 580 410 C 557.910156 410 540 392.089844 540 370 C 540 347.910156 557.910156 330 580 330 C 602.089844 330 620 347.910156 620 370 Z M 620 370 "/>
</clipPath>
<clipPath id="clip-192">
<path clip-rule="nonzero" d="M 457 320 L 620 320 L 620 420 L 457 420 Z M 457 320 "/>
</clipPath>
<clipPath id="clip-193">
<path clip-rule="nonzero" d="M 180 420 L 230 320 L 280 420 M 350 420 L 350 320 L 450 320 L 450 420 Z M 620 370 C 620 392.089844 602.089844 410 580 410 C 557.910156 410 540 392.089844 540 370 C 540 347.910156 557.910156 330 580 330 C 602.089844 330 620 347.910156 620 370 Z M 620 370 "/>
</clipPath>
<clipPath id="clip-194">
<path clip-rule="nonzero" d="M 462 320 L 620 320 L 620 420 L 462 420 Z M 462 320 "/>
</clipPath>
<clipPath id="clip-195">
<path clip-rule="nonzero" d="M 180 420 L 230 320 L 280 420 M 350 420 L 350 320 L 450 320 L 450 420 Z M 620 370 C 620 392.089844 602.089844 410 580 410 C 557.910156 410 540 392.089844 540 370 C 540 347.910156 557.910156 330 580 330 C 602.089844 330 620 347.910156 620 370 Z M 620 370 "/>
</clipPath>
<clipPath id="clip-196">
<path clip-rule="nonzero" d="M 467 320 L 620 320 L 620 420 L 467 420 Z M 467 320 "/>
</clipPath>
<clipPath id="clip-197">
<path clip-rule="nonzero" d="M 180 420 L 230 320 L 280 420 M 350 420 L 350 320 L 450 320 L 450 420 Z M 620 370 C 620 392.089844 602.089844 410 580 410 C 557.910156 410 540 392.089844 540 370 C 540 347.910156 557.910156 330 580 330 C 602.089844 330 620 347.910156 620 370 Z M 620 370 "/>
</clipPath>
<clipPath id="clip-198">
<path clip-rule="nonzero" d="M 472 320 L 620 320 L 620 420 L 472 420 Z M 472 320 "/>
</clipPath>
<clipPath id="clip-199">
<path clip-rule="nonzero" d="M 180 420 L 230 320 L 280 420 M 350 420 L 350 320 L 450 320 L 450 420 Z M 620 370 C 620 392.089844 602.089844 410 580 410 C 557.910156 410 540 392.089844 540 370 C 540 347.910156 557.910156 330 580 330 C 602.089844 330 620 347.910156 620 370 Z M 620 370 "/>
</clipPath>
<clipPath id="clip-200">
<path clip-rule="nonzero" d="M 477 320 L 620 320 L 620 420 L 477 420 Z M 477 320 "/>
</clipPath>
<clipPath id="clip-201">
<path clip-rule="nonzero" d="M 180 420 L 230 320 L 280 420 M 350 420 L 350 320 L 450 320 L 450 420 Z M 620 370 C 620 392.089844 602.089844 410 580 410 C 557.910156 410 540 392.089844 540 370 C 540 347.910156 557.910156 330 580 330 C 602.089844 330 620 347.910156 620 370 Z M 620 370 "/>
</clipPath>
</defs>
<rect x="-80" y="-50" width="960" height="600" fill="rgb(98.039216%, 92.156863%, 84.313725%)" fill-opacity="1"/>
<path fill="none" stroke-width="2" stroke-linecap="butt" stroke-linejoin="miter" stroke="rgb(40%, 20%, 60%)" stroke-opacity="1" stroke-miterlimit="10" d="M 180 180 L 230 80 L 280 180 M 350 180 L 350 80 L 450 80 L 450 180 Z M 620 130 C 620 152.089844 602.089844 170 580 170 C 557.910156 170 540 152.089844 540 130 C 540 107.910156 557.910156 90 580 90 C 602.089844 90 620 107.910156 620 130 Z M 620 130 "/>
<path fill-rule="nonzero" fill="rgb(100%, 64.705882%, 0%)" fill-opacity="1" d="M 180 300 L 230 200 L 280 300 M 350 300 L 350 200 L 450 200 L 450 300 Z M 620 250 C 620 272.089844 602.089844 290 580 290 C 557.910156 290 540 272.089844 540 250 C 540 227.910156 557.910156 210 580 210 C 602.089844 210 620 227.910156 620 250 Z M 620 250 "/>
<g clip-path="url(#clip-0)">
<g clip-path="url(#clip-1)">
<path fill="none" stroke-width="2" stroke-linecap="butt" stroke-linejoin="miter" stroke="rgb(0%, 50.196078%, 0%)" stroke-opacity="1" stroke-miterlimit="10" d="M 294.335938 120 L 5.664062 620 "/>
</g>
</g>
<g clip-path="url(#clip-2)">
<g clip-path="url(#clip-3)">
<path fill="none" stroke-width="2" stroke-linecap="butt" stroke-linejoin="miter" stroke="rgb(0%, 50.196078%, 0%)" stroke-opacity="1" stroke-miterlimit="10" d="M 299.335938 120 L 10.664062 620 "/>
</g>
</g>
<g clip-path="url(#clip-4)">
<g clip-path="url(#clip-5)">
<path fill="none" stroke-width="2" stroke-linecap="butt" stroke-linejoin="miter" stroke="rgb(0%, 50.196078%, 0%)" stroke-opacity="1" stroke-miterlimit="10" d="M 304.335938 120 L 15.664062 620 "/>
</g>
</g>
<g clip-path="url(#clip-6)">
<g clip-path="url(#clip-7)">
<path fill="none" stroke-width="2" stroke-linecap="butt" stroke-linejoin="miter" stroke="rgb(0%, 50.196078%, 0%)" stroke-opacity="1" stroke-miterlimit="10" d="M 309.335938 120 L 20.664062 620 "/>
</g>
</g>
<g clip-path="url(#clip-8)">
<g clip-path="url(#clip-9)">
<path fill="none" stroke-width="2" stroke-linecap="butt" stroke-linejoin="miter" stroke="rgb(0%, 50.196078%, 0%)" stroke-opacity="1" stroke-miterlimit="10" d="M 314.335938 120 L 25.664062 620 "/>
</g>
</g>
<g clip-path="url(#clip-10)">
<g clip-path="url(#clip-11)">
<path fill="none" stroke-width="2" stroke-linecap="butt" stroke-linejoin="miter" stroke="rgb(0%, 50.196078%, 0%)" stroke-opacity="1" stroke-miterlimit="10" d="M 319.335938 120 L 30.664062 620 "/>
</g>
</g>
<g clip-path="url(#clip-12)">
<g clip-path="url(#clip-13)">
<path fill="none" stroke-width="2" stroke-linecap="butt" stroke-linejoin="miter" stroke="rgb(0%, 50.196078%, 0%)" stroke-opacity="1" stroke-miterlimit="10" d="M 324.335938 120 L 35.664062 620 "/>
</g>
</g>
<g clip-path="url(#clip-14)">
<g clip-path="url(#clip-15)">
<path fill="none" stroke-width="2" stroke-linecap="butt" stroke-linejoin="miter" stroke="rgb(0%, 50.196078%, 0%)" stroke-opacity="1" stroke-miterlimit="10" d="M 329.335938 120 L 40.664062 620 "/>
</g>
</g>
<g clip-path="url(#clip-16)">
<g clip-path="url(#clip-17)">
<path fill="none" stroke-width="2" stroke-linecap="butt" stroke-linejoin="miter" stroke="rgb(0%, 50.196078%, 0%)" stroke-opacity="1" stroke-miterlimit="10" d="M 334.335938 120 L 45.664062 620 "/>
</g>
</g>
<g clip-path="url(#clip-18)">
<g clip-path="url(#clip-19)">
<path fill="none" stroke-width="2" stroke-linecap="butt" stroke-linejoin="miter" stroke="rgb(0%, 50.196078%, 0%)" stroke-opacity="1" stroke-miterlimit="10" d="M 339.335938 120 L 50.664062 620 "/>
</g>
</g>
<g clip-path="url(#clip-20)">
<g clip-path="url(#clip-21)">
<path fill="none" stroke-width="2" stroke-linecap="butt" stroke-linejoin="miter" stroke="rgb(0%, 50.196078%, 0%)" stroke-opacity="1" stroke-miterlimit="10" d="M 344.335938 120 L 55.664062 620 "/>
</g>
</g>
<g clip-path="url(#clip-22)">
<g clip-path="url(#clip-23)">
<path fill="none" stroke-width="2" stroke-linecap="butt" stroke-linejoin="miter" stroke="rgb(0%, 50.196078%, 0%)" stroke-opacity="1" stroke-miterlimit="10" d="M 349.335938 120 L 60.664062 620 "/>
</g>
</g>
<g clip-path="url(#clip-24)">
<g clip-path="url(#clip-25)">
<path fill="none" stroke-width="2" stroke-linecap="butt" stroke-linejoin="miter" stroke="rgb(0%, 50.196078%, 0%)" stroke-opacity="1" stroke-miterlimit="10" d="M 354.335938 120 L 65.664062 620 "/>
</g>
</g>
<g clip-path="url(#clip-26)">
<g clip-path="url(#clip-27)">
<path fill="none" stroke-width="2" stroke-linecap="butt" stroke-linejoin="miter" stroke="rgb(0%, 50.196078%, 0%)" stroke-opacity="1" stroke-miterlimit="10" d="M 359.335938 120 L 70.664062 620 "/>
</g>
</g>
<g clip-path="url(#clip-28)">
<g clip-path="url(#clip-29)">
<path fill="none" stroke-width="2" stroke-linecap="butt" stroke-linejoin="miter" stroke="rgb(0%, 50.196078%, 0%)" stroke-opacity="1" stroke-miterlimit="10" d="M 364.335938 120 L 75.664062 620 "/>
</g>
</g>
<g clip-path="url(#clip-30)">
<g clip-path="url(#clip-31)">
<path fill="none" stroke-width="2" stroke-linecap="butt" stroke-linejoin="miter" stroke="rgb(0%, 50.196078%, 0%)" stroke-opacity="1" stroke-miterlimit="10" d="M 369.335938 120 L 80.664062 620 "/>
</g>
</g>
<g clip-path="url(#clip-32)">
<g clip-path="url(#clip-33)">
<path fill="none" stroke-width="2" stroke-linecap="butt" stroke-linejoin="miter" stroke="rgb(0%, 50.196078%, 0%)" stroke-opacity="1" stroke-miterlimit="10" d="M 374.335938 120 L 85.664062 620 "/>
</g>
</g>
<g clip-path="url(#clip-34)">
<g clip-path="url(#clip-35)">
<path fill="none" stroke-width="2" stroke-linecap="butt" stroke-linejoin="miter" stroke="rgb(0%, 50.196078%, 0%)" stroke-opacity="1" stroke-miterlimit="10" d="M 379.335938 120 L 90.664062 620 "/>
</g>
</g>
<g clip-path="url(#clip-36)">
<g clip-path="url(#clip-37)">
<path fill="none" stroke-width="2" stroke-linecap="butt" stroke-linejoin="miter" stroke="rgb(0%, 50.196078%, 0%)" stroke-opacity="1" stroke-miterlimit="10" d="M 384.335938 120 L 95.664062 620 "/>
</g>
</g>
<g clip-path="url(#clip-38)">
<g clip-path="url(#clip-39)">
<path fill="none" stroke-width="2" stroke-linecap="butt" stroke-linejoin="miter" stroke="rgb(0%, 50.196078%, 0%)" stroke-opacity="1" stroke-miterlimit="10" d="M 389.335938 120 L 100.664062 620 "/>
</g>
</g>
<g clip-path="url(#clip-40)">
<g clip-path="url(#clip-41)">
<path fill="none" stroke-width="2" stroke-linecap="butt" stroke-linejoin="miter" stroke="rgb(0%, 50.196078%, 0%)" stroke-opacity="1" stroke-miterlimit="10" d="M 394.335938 120 L 105.664062 620 "/>
</g>
</g>
<g clip-path="url(#clip-42)">
<g clip-path="url(#clip-43)">
<path fill="none" stroke-width="2" stroke-linecap="butt" stroke-linejoin="miter" stroke="rgb(0%, 50.196078%, 0%)" stroke-opacity="1" stroke-miterlimit="10" d="M 399.335938 120 L 110.664062 620 "/>
</g>
</g>
<g clip-path="url(#clip-44)">
<g clip-path="url(#clip-45)">
<path fill="none" stroke-width="2" stroke-linecap="butt" stroke-linejoin="miter" stroke="rgb(0%, 50.196078%, 0%)" stroke-opacity="1" stroke-miterlimit="10" d="M 404.335938 120 L 115.664062 620 "/>
</g>
</g>
<g clip-path="url(#clip-46)">
<g clip-path="url(#clip-47)">
<path fill="none" stroke-width="2" stroke-linecap="butt" stroke-linejoin="miter" stroke="rgb(0%, 50.196078%, 0%)" stroke-opacity="1" stroke-miterlimit="10" d="M 409.335938 120 L 120.664062 620 "/>
</g>
</g>
<g clip-path="url(#clip-48)">
<g clip-path="url(#clip-49)">
<path fill="none" stroke-width="2" stroke-linecap="butt" stroke-linejoin="miter" stroke="rgb(0%, 50.196078%, 0%)" stroke-opacity="1" stroke-miterlimit="10" d="M 414.335938 120 L 125.664062 620 "/>
</g>
</g>
<g clip-path="url(#clip-50)">
<g clip-path="url(#clip-51)">
<path fill="none" stroke-width="2" stroke-linecap="butt" stroke-linejoin="miter" stroke="rgb(0%, 50.196078%, 0%)" stroke-opacity="1" stroke-miterlimit="10" d="M 419.335938 120 L 130.664062 620 "/>
</g>
</g>
<g clip-path="url(#clip-52)">
<g clip-path="url(#clip-53)">
<path fill="none" stroke-width="2" stroke-linecap="butt" stroke-linejoin="miter" stroke="rgb(0%, 50.196078%, 0%)" stroke-opacity="1" stroke-miterlimit="10" d="M 424.335938 120 L 135.664062 620 "/>
</g>
</g>
<g clip-path="url(#clip-54)">
<g clip-path="url(#clip-55)">
<path fill="none" stroke-width="2" stroke-linecap="butt" stroke-linejoin="miter" stroke="rgb(0%, 50.196078%, 0%)" stroke-opacity="1" stroke-miterlimit="10" d="M 429.335938 120 L 140.664062 620 "/>
</g>
</g>
<g clip-path="url(#clip-56)">
<g clip-path="url(#clip-57)">
<path fill="none" stroke-width="2" stroke-linecap="butt" stroke-linejoin="miter" stroke="rgb(0%, 50.196078%, 0%)" stroke-opacity="1" stroke-miterlimit="10" d="M 434.335938 120 L 145.664062 620 "/>
</g>
</g>
<g clip-path="url(#clip-58)">
<g clip-path="url(#clip-59)">
<path fill="none" stroke-width="2" stroke-linecap="butt" stroke-linejoin="miter" stroke="rgb(0%, 50.196078%, 0%)" stroke-opacity="1" stroke-miterlimit="10" d="M 439.335938 120 L 150.664062 620 "/>
</g>
</g>
<g clip-path="url(#clip-60)">
<g clip-path="url(#clip-61)">
<path fill="none" stroke-width="2" stroke-linecap="butt" stroke-linejoin="miter" stroke="rgb(0%, 50.196078%, 0%)" stroke-opacity="1" stroke-miterlimit="10" d="M 444.335938 120 L 155.664062 620 "/>
</g>
</g>
<g clip-path="url(#clip-62)">
<g clip-path="url(#clip-63)">
<path fill="none" stroke-width="2" stroke-linecap="butt" stroke-linejoin="miter" stroke="rgb(0%, 50.196078%, 0%)" stroke-opacity="1" stroke-miterlimit="10" d="M 449.335938 120 L 160.664062 620 "/>
</g>
</g>
<g clip-path="url(#clip-64)">
<g clip-path="url(#clip-65)">
<path fill="none" stroke-width="2" stroke-linecap="butt" stroke-linejoin="miter" stroke="rgb(0%, 50.196078%, 0%)" stroke-opacity="1" stroke-miterlimit="10" d="M 454.335938 120 L 165.664062 620 "/>
</g>
</g>
<g clip-path="url(#clip-66)">
<g clip-path="url(#clip-67)">
<path fill="none" stroke-width="2" stroke-linecap="butt" stroke-linejoin="miter" stroke="rgb(0%, 50.196078%, 0%)" stroke-opacity="1" stroke-miterlimit="10" d="M 459.335938 120 L 170.664062 620 "/>
</g>
</g>
<g clip-path="url(#clip-68)">
<g clip-path="url(#clip-69)">
<path fill="none" stroke-width="2" stroke-linecap="butt" stroke-linejoin="miter" stroke="rgb(0%, 50.196078%, 0%)" stroke-opacity="1" stroke-miterlimit="10" d="M 464.335938 120 L 175.664062 620 "/>
</g>
</g>
<g clip-path="url(#clip-70)">
<g clip-path="url(#clip-71)">
<path fill="none" stroke-width="2" stroke-linecap="butt" stroke-linejoin="miter" stroke="rgb(0%, 50.196078%, 0%)" stroke-opacity="1" stroke-miterlimit="10" d="M 469.335938 120 L 180.664062 620 "/>
</g>
</g>
<g clip-path="url(#clip-72)">
<g clip-path="url(#clip-73)">
<path fill="none" stroke-width="2" stroke-linecap="butt" stroke-linejoin="miter" stroke="rgb(0%, 50.196078%, 0%)" stroke-opacity="1" stroke-miterlimit="10" d="M 474.335938 120 L 185.664062 620 "/>
</g>
</g>
<g clip-path="url(#clip-74)">
<g clip-path="url(#clip-75)">
<path fill="none" stroke-width="2" stroke-linecap="butt" stroke-linejoin="miter" stroke="rgb(0%, 50.196078%, 0%)" stroke-opacity="1" stroke-miterlimit="10" d="M 479.335938 120 L 190.664062 620 "/>
</g>
</g>
<g clip-path="url(#clip-76)">
<g clip-path="url(#clip-77)">
<path fill="none" stroke-width="2" stroke-linecap="butt" stroke-linejoin="miter" stroke="rgb(0%, 50.196078%, 0%)" stroke-opacity="1" stroke-miterlimit="10" d="M 484.335938 120 L 195.664062 620 "/>
</g>
</g>
<g clip-path="url(#clip-78)">
<g clip-path="url(#clip-79)">
<path fill="none" stroke-width="2" stroke-linecap="butt" stroke-linejoin="miter" stroke="rgb(0%, 50.196078%, 0%)" stroke-opacity="1" stroke-miterlimit="10" d="M 489.335938 120 L 200.664062 620 "/>
</g>
</g>
<g clip-path="url(#clip-80)">
<g clip-path="url(#clip-81)">
<path fill="none" stroke-width="2" stroke-linecap="butt" stroke-linejoin="miter" stroke="rgb(0%, 50.196078%, 0%)" stroke-opacity="1" stroke-miterlimit="10" d="M 494.335938 120 L 205.664062 620 "/>
</g>
</g>
<g clip-path="url(#clip-82)">
<g clip-path="url(#clip-83)">
<path fill="none" stroke-width="2" stroke-linecap="butt" stroke-linejoin="miter" stroke="rgb(0%, 50.196078%, 0%)" stroke-opacity="1" stroke-miterlimit="10" d="M 499.335938 120 L 210.664062 620 "/>
</g>
</g>
<g clip-path="url(#clip-84)">
<g clip-path="url(#clip-85)">
<path fill="none" stroke-width="2" stroke-linecap="butt" stroke-linejoin="miter" stroke="rgb(0%, 50.196078%, 0%)" stroke-opacity="1" stroke-miterlimit="10" d="M 504.335938 120 L 215.664062 620 "/>
</g>
</g>
<g clip-path="url(#clip-86)">
<g clip-path="url(#clip-87)">
<path fill="none" stroke-width="2" stroke-linecap="butt" stroke-linejoin="miter" stroke="rgb(0%, 50.196078%, 0%)" stroke-opacity="1" stroke-miterlimit="10" d="M 509.335938 120 L 220.664062 620 "/>
</g>
</g>
<g clip-path="url(#clip-88)">
<g clip-path="url(#clip-89)">
<path fill="none" stroke-width="2" stroke-linecap="butt" stroke-linejoin="miter" stroke="rgb(0%, 50.196078%, 0%)" stroke-opacity="1" stroke-miterlimit="10" d="M 514.335938 120 L 225.664062 620 "/>
</g>
</g>
<g clip-path="url(#clip-90)">
<g clip-path="url(#clip-91)">
<path fill="none" stroke-width="2" stroke-linecap="butt" stroke-linejoin="miter" stroke="rgb(0%, 50.196078%, 0%)" stroke-opacity="1" stroke-miterlimit="10" d="M 519.335938 120 L 230.664062 620 "/>
</g>
</g>
<g clip-path="url(#clip-92)">
<g clip-path="url(#clip-93)">
<path fill="none" stroke-width="2" stroke-linecap="butt" stroke-linejoin="miter" stroke="rgb(0%, 50.196078%, 0%)" stroke-opacity="1" stroke-miterlimit="10" d="M 524.335938 120 L 235.664062 620 "/>
</g>
</g>
<g clip-path="url(#clip-94)">
<g clip-path="url(#clip-95)">
<path fill="none" stroke-width="2" stroke-linecap="butt" stroke-linejoin="miter" stroke="rgb(0%, 50.196078%, 0%)" stroke-opacity="1" stroke-miterlimit="10" d="M 529.335938 120 L 240.664062 620 "/>
</g>
</g>
<g clip-path="url(#clip-96)">
<g clip-path="url(#clip-97)">
<path fill="none" stroke-width="2" stroke-linecap="butt" stroke-linejoin="miter" stroke="rgb(0%, 50.196078%, 0%)" stroke-opacity="1" stroke-miterlimit="10" d="M 534.335938 120 L 245.664062 620 "/>
</g>
</g>
<g clip-path="url(#clip-98)">
<g clip-path="url(#clip-99)">
<path fill="none" stroke-width="2" stroke-linecap="butt" stroke-linejoin="miter" stroke="rgb(0%, 50.196078%, 0%)" stroke-opacity="1" stroke-miterlimit="10" d="M 539.335938 120 L 250.664062 620 "/>
</g>
</g>
<g clip-path="url(#clip-100)">
<g clip-path="url(#clip-101)">
<path fill="none" stroke-width="2" stroke-linecap="butt" stroke-linejoin="miter" stroke="rgb(0%, 50.196078%, 0%)" stroke-opacity="1" stroke-miterlimit="10" d="M 544.335938 120 L 255.664062 620 "/>
</g>
</g>
<g clip-path="url(#clip-102)">
<g clip-path="url(#clip-103)">
<path fill="none" stroke-width="2" stroke-linecap="butt" stroke-linejoin="miter" stroke="rgb(0%, 50.196078%, 0%)" stroke-opacity="1" stroke-miterlimit="10" d="M 549.335938 120 L 260.664062 620 "/>
</g>
</g>
<g clip-path="url(#clip-104)">
<g clip-path="url(#clip-105)">
<path fill="none" stroke-width="2" stroke-linecap="butt" stroke-linejoin="miter" stroke="rgb(0%, 50.196078%, 0%)" stroke-opacity="1" stroke-miterlimit="10" d="M 554.335938 120 L 265.664062 620 "/>
</g>
</g>
<g clip-path="url(#clip-106)">
<g clip-path="url(#clip-107)">
<path fill="none" stroke-width="2" stroke-linecap="butt" stroke-linejoin="miter" stroke="rgb(0%, 50.196078%, 0%)" stroke-opacity="1" stroke-miterlimit="10" d="M 559.335938 120 L 270.664062 620 "/>
</g>
</g>
<g clip-path="url(#clip-108)">
<g clip-path="url(#clip-109)">
<path fill="none" stroke-width="2" stroke-linecap="butt" stroke-linejoin="miter" stroke="rgb(0%, 50.196078%, 0%)" stroke-opacity="1" stroke-miterlimit="10" d="M 564.335938 120 L 275.664062 620 "/>
</g>
</g>
<g clip-path="url(#clip-110)">
<g clip-path="url(#clip-111)">
<path fill="none" stroke-width="2" stroke-linecap="butt" stroke-linejoin="miter" stroke="rgb(0%, 50.196078%, 0%)" stroke-opacity="1" stroke-miterlimit="10" d="M 569.335938 120 L 280.664062 620 "/>
</g>
</g>
<g clip-path="url(#clip-112)">
<g clip-path="url(#clip-113)">
<path fill="none" stroke-width="2" stroke-linecap="butt" stroke-linejoin="miter" stroke="rgb(0%, 50.196078%, 0%)" stroke-opacity="1" stroke-miterlimit="10" d="M 574.335938 120 L 285.664062 620 "/>
</g>
</g>
<g clip-path="url(#clip-114)">
<g clip-path="url(#clip-115)">
<path fill="none" stroke-width="2" stroke-linecap="butt" stroke-linejoin="miter" stroke="rgb(0%, 50.196078%, 0%)" stroke-opacity="1" stroke-miterlimit="10" d="M 579.335938 120 L 290.664062 620 "/>
</g>
</g>
<g clip-path="url(#clip-116)">
<g clip-path="url(#clip-117)">
<path fill="none" stroke-width="2" stroke-linecap="butt" stroke-linejoin="miter" stroke="rgb(0%, 50.196078%, 0%)" stroke-opacity="1" stroke-miterlimit="10" d="M 584.335938 120 L 295.664062 620 "/>
</g>
</g>
<g clip-path="url(#clip-118)">
<g clip-path="url(#clip-119)">
<path fill="none" stroke-width="2" stroke-linecap="butt" stroke-linejoin="miter" stroke="rgb(0%, 50.196078%, 0%)" stroke-opacity="1" stroke-miterlimit="10" d="M 589.335938 120 L 300.664062 620 "/>
</g>
</g>
<g clip-path="url(#clip-120)">
<g clip-path="url(#clip-121)">
<path fill="none" stroke-width="2" stroke-linecap="butt" stroke-linejoin="miter" stroke="rgb(0%, 50.196078%, 0%)" stroke-opacity="1" stroke-miterlimit="10" d="M 594.335938 120 L 305.664062 620 "/>
</g>
</g>
<g clip-path="url(#clip-122)">
<g clip-path="url(#clip-123)">
<path fill="none" stroke-width="2" stroke-linecap="butt" stroke-linejoin="miter" stroke="rgb(0%, 50.196078%, 0%)" stroke-opacity="1" stroke-miterlimit="10" d="M 599.335938 120 L 310.664062 620 "/>
</g>
</g>
<g clip-path="url(#clip-124)">
<g clip-path="url(#clip-125)">
<path fill="none" stroke-width="2" stroke-linecap="butt" stroke-linejoin="miter" stroke="rgb(0%, 50.196078%, 0%)" stroke-opacity="1" stroke-miterlimit="10" d="M 604.335938 120 L 315.664062 620 "/>
</g>
</g>
<g clip-path="url(#clip-126)">
<g clip-path="url(#clip-127)">
<path fill="none" stroke-width="2" stroke-linecap="butt" stroke-linejoin="miter" stroke="rgb(0%, 50.196078%, 0%)" stroke-opacity="1" stroke-miterlimit="10" d="M 609.335938 120 L 320.664062 620 "/>
</g>
</g>
<g clip-path="url(#clip-128)">
<g clip-path="url(#clip-129)">
<path fill="none" stroke-width="2" stroke-linecap="butt" stroke-linejoin="miter" stroke="rgb(0%, 50.196078%, 0%)" stroke-opacity="1" stroke-miterlimit="10" d="M 614.335938 120 L 325.664062 620 "/>
</g>
</g>
<g clip-path="url(#clip-130)">
<g clip-path="url(#clip-131)">
<path fill="none" stroke-width="2" stroke-linecap="butt" stroke-linejoin="miter" stroke="rgb(0%, 50.196078%, 0%)" stroke-opacity="1" stroke-miterlimit="10" d="M 619.335938 120 L 330.664062 620 "/>
</g>
</g>
<g clip-path="url(#clip-132)">
<g clip-path="url(#clip-133)">
<path fill="none" stroke-width="2" stroke-linecap="butt" stroke-linejoin="miter" stroke="rgb(0%, 50.196078%, 0%)" stroke-opacity="1" stroke-miterlimit="10" d="M 624.335938 120 L 335.664062 620 "/>
</g>
</g>
<g clip-path="url(#clip-134)">
<g clip-path="url(#clip-135)">
<path fill="none" stroke-width="2" stroke-linecap="butt" stroke-linejoin="miter" stroke="rgb(0%, 50.196078%, 0%)" stroke-opacity="1" stroke-miterlimit="10" d="M 629.335938 120 L 340.664062 620 "/>
</g>
</g>
<g clip-path="url(#clip-136)">
<g clip-path="url(#clip-137)">
<path fill="none" stroke-width="2" stroke-linecap="butt" stroke-linejoin="miter" stroke="rgb(0%, 50.196078%, 0%)" stroke-opacity="1" stroke-miterlimit="10" d="M 634.335938 120 L 345.664062 620 "/>
</g>
</g>
<g clip-path="url(#clip-138)">
<g clip-path="url(#clip-139)">
<path fill="none" stroke-width="2" stroke-linecap="butt" stroke-linejoin="miter" stroke="rgb(0%, 50.196078%, 0%)" stroke-opacity="1" stroke-miterlimit="10" d="M 639.335938 120 L 350.664062 620 "/>
</g>
</g>
<g clip-path="url(#clip-140)">
<g clip-path="url(#clip-141)">
<path fill="none" stroke-width="2" stroke-linecap="butt" stroke-linejoin="miter" stroke="rgb(0%, 50.196078%, 0%)" stroke-opacity="1" stroke-miterlimit="10" d="M 644.335938 120 L 355.664062 620 "/>
</g>
</g>
<g clip-path="url(#clip-142)">
<g clip-path="url(#clip-143)">
<path fill="none" stroke-width="2" stroke-linecap="butt" stroke-linejoin="miter" stroke="rgb(0%, 50.196078%, 0%)" stroke-opacity="1" stroke-miterlimit="10" d="M 649.335938 120 L 360.664062 620 "/>
</g>
</g>
<g clip-path="url(#clip-144)">
<g clip-path="url(#clip-145)">
<path fill="none" stroke-width="2" stroke-linecap="butt" stroke-linejoin="miter" stroke="rgb(0%, 50.196078%, 0%)" stroke-opacity="1" stroke-miterlimit="10" d="M 654.335938 120 L 365.664062 620 "/>
</g>
</g>
<g clip-path="url(#clip-146)">
<g clip-path="url(#clip-147)">
<path fill="none" stroke-width="2" stroke-linecap="butt" stroke-linejoin="miter" stroke="rgb(0%, 50.196078%, 0%)" stroke-opacity="1" stroke-miterlimit="10" d="M 659.335938 120 L 370.664062 620 "/>
</g>
</g>
<g clip-path="url(#clip-148)">
<g clip-path="url(#clip-149)">
<path fill="none" stroke-width="2" stroke-linecap="butt" stroke-linejoin="miter" stroke="rgb(0%, 50.196078%, 0%)" stroke-opacity="1" stroke-miterlimit="10" d="M 664.335938 120 L 375.664062 620 "/>
</g>
</g>
<g clip-path="url(#clip-150)">
<g clip-path="url(#clip-151)">
<path fill="none" stroke-width="2" stroke-linecap="butt" stroke-linejoin="miter" stroke="rgb(0%, 50.196078%, 0%)" stroke-opacity="1" stroke-miterlimit="10" d="M 669.335938 120 L 380.664062 620 "/>
</g>
</g>
<g clip-path="url(#clip-152)">
<g clip-path="url(#clip-153)">
<path fill="none" stroke-width="2" stroke-linecap="butt" stroke-linejoin="miter" stroke="rgb(0%, 50.196078%, 0%)" stroke-opacity="1" stroke-miterlimit="10" d="M 674.335938 120 L 385.664062 620 "/>
</g>
</g>
<g clip-path="url(#clip-154)">
<g clip-path="url(#clip-155)">
<path fill="none" stroke-width="2" stroke-linecap="butt" stroke-linejoin="miter" stroke="rgb(0%, 50.196078%, 0%)" stroke-opacity="1" stroke-miterlimit="10" d="M 679.335938 120 L 390.664062 620 "/>
</g>
</g>
<g clip-path="url(#clip-156)">
<g clip-path="url(#clip-157)">
<path fill="none" stroke-width="2" stroke-linecap="butt" stroke-linejoin="miter" stroke="rgb(0%, 50.196078%, 0%)" stroke-opacity="1" stroke-miterlimit="10" d="M 684.335938 120 L 395.664062 620 "/>
</g>
</g>
<g clip-path="url(#clip-158)">
<g clip-path="url(#clip-159)">
<path fill="none" stroke-width="2" stroke-linecap="butt" stroke-linejoin="miter" stroke="rgb(0%, 50.196078%, 0%)" stroke-opacity="1" stroke-miterlimit="10" d="M 689.335938 120 L 400.664062 620 "/>
</g>
</g>
<g clip-path="url(#clip-160)">
<g clip-path="url(#clip-161)">
<path fill="none" stroke-width="2" stroke-linecap="butt" stroke-linejoin="miter" stroke="rgb(0%, 50.196078%, 0%)" stroke-opacity="1" stroke-miterlimit="10" d="M 694.335938 120 L 405.664062 620 "/>
</g>
</g>
<g clip-path="url(#clip-162)">
<g clip-path="url(#clip-163)">
<path fill="none" stroke-width="2" stroke-linecap="butt" stroke-linejoin="miter" stroke="rgb(0%, 50.196078%, 0%)" stroke-opacity="1" stroke-miterlimit="10" d="M 699.335938 120 L 410.664062 620 "/>
</g>
</g>
<g clip-path="url(#clip-164)">
<g clip-path="url(#clip-165)">
<path fill="none" stroke-width="2" stroke-linecap="butt" stroke-linejoin="miter" stroke="rgb(0%, 50.196078%, 0%)" stroke-opacity="1" stroke-miterlimit="10" d="M 704.335938 120 L 415.664062 620 "/>
</g>
</g>
<g clip-path="url(#clip-166)">
<g clip-path="url(#clip-167)">
<path fill="none" stroke-width="2" stroke-linecap="butt" stroke-linejoin="miter" stroke="rgb(0%, 50.196078%, 0%)" stroke-opacity="1" stroke-miterlimit="10" d="M 709.335938 120 L 420.664062 620 "/>
</g>
</g>
<g clip-path="url(#clip-168)">
<g clip-path="url(#clip-169)">
<path fill="none" stroke-width="2" stroke-linecap="butt" stroke-linejoin="miter" stroke="rgb(0%, 50.196078%, 0%)" stroke-opacity="1" stroke-miterlimit="10" d="M 714.335938 120 L 425.664062 620 "/>
</g>
</g>
<g clip-path="url(#clip-170)">
<g clip-path="url(#clip-171)">
<path fill="none" stroke-width="2" stroke-linecap="butt" stroke-linejoin="miter" stroke="rgb(0%, 50.196078%, 0%)" stroke-opacity="1" stroke-miterlimit="10" d="M 719.335938 120 L 430.664062 620 "/>
</g>
</g>
<g clip-path="url(#clip-172)">
<g clip-path="url(#clip-173)">
<path fill="none" stroke-width="2" stroke-linecap="butt" stroke-linejoin="miter" stroke="rgb(0%, 50.196078%, 0%)" stroke-opacity="1" stroke-miterlimit="10" d="M 724.335938 120 L 435.664062 620 "/>
</g>
</g>
<g clip-path="url(#clip-174)">
<g clip-path="url(#clip-175)">
<path fill="none" stroke-width="2" stroke-linecap="butt" stroke-linejoin="miter" stroke="rgb(0%, 50.196078%, 0%)" stroke-opacity="1" stroke-miterlimit="10" d="M 729.335938 120 L 440.664062 620 "/>
</g>
</g>
<g clip-path="url(#clip-176)">
<g clip-path="url(#clip-177)">
<path fill="none" stroke-width="2" stroke-linecap="butt" stroke-linejoin="miter" stroke="rgb(0%, 50.196078%, 0%)" stroke-opacity="1" stroke-miterlimit="10" d="M 734.335938 120 L 445.664062 620 "/>
</g>
</g>
<g clip-path="url(#clip-178)">
<g clip-path="url(#clip-179)">
<path fill="none" stroke-width="2" stroke-linecap="butt" stroke-linejoin="miter" stroke="rgb(0%, 50.196078%, 0%)" stroke-opacity="1" stroke-miterlimit="10" d="M 739.335938 120 L 450.664062 620 "/>
</g>
</g>
<g clip-path="url(#clip-180)">
<g clip-path="url(#clip-181)">
<path fill="none" stroke-width="2" stroke-linecap="butt" stroke-linejoin="miter" stroke="rgb(0%, 50.196078%, 0%)" stroke-opacity="1" stroke-miterlimit="10" d="M 744.335938 120 L 455.664062 620 "/>
</g>
</g>
<g clip-path="url(#clip-182)">
<g clip-path="url(#clip-183)">
<path fill="none" stroke-width="2" stroke-linecap="butt" stroke-linejoin="miter" stroke="rgb(0%, 50.196078%, 0%)" stroke-opacity="1" stroke-miterlimit="10" d="M 749.335938 120 L 460.664062 620 "/>
</g>
</g>
<g clip-path="url(#clip-184)">
<g clip-path="url(#clip-185)">
<path fill="none" stroke-width="2" stroke-linecap="butt" stroke-linejoin="miter" stroke="rgb(0%, 50.196078%, 0%)" stroke-opacity="1" stroke-miterlimit="10" d="M 754.335938 120 L 465.664062 620 "/>
</g>
</g>
<g clip-path="url(#clip-186)">
<g clip-path="url(#clip-187)">
<path fill="none" stroke-width="2" stroke-linecap="butt" stroke-linejoin="miter" stroke="rgb(0%, 50.196078%, 0%)" stroke-opacity="1" stroke-miterlimit="10" d="M 759.335938 120 L 470.664062 620 "/>
</g>
</g>
<g clip-path="url(#clip-188)">
<g clip-path="url(#clip-189)">
<path fill="none" stroke-width="2" stroke-linecap="butt" stroke-linejoin="miter" stroke="rgb(0%, 50.196078%, 0%)" stroke-opacity="1" stroke-miterlimit="10" d="M 764.335938 120 L 475.664062 620 "/>
</g>
</g>
<g clip-path="url(#clip-190)">
<g clip-path="url(#clip-191)">
<path fill="none" stroke-width="2" stroke-linecap="butt" stroke-linejoin="miter" stroke="rgb(0%, 50.196078%, 0%)" stroke-opacity="1" stroke-miterlimit="10" d="M 769.335938 120 L 480.664062 620 "/>
</g>
</g>
<g clip-path="url(#clip-192)">
<g clip-path="url(#clip-193)">
<path fill="none" stroke-width="2" stroke-linecap="butt" stroke-linejoin="miter" stroke="rgb(0%, 50.196078%, 0%)" stroke-opacity="1" stroke-miterlimit="10" d="M 774.335938 120 L 485.664062 620 "/>
</g>
</g>
<g clip-path="url(#clip-194)">
<g clip-path="url(#clip-195)">
<path fill="none" stroke-width="2" stroke-linecap="butt" stroke-linejoin="miter" stroke="rgb(0%, 50.196078%, 0%)" stroke-opacity="1" stroke-miterlimit="10" d="M 779.335938 120 L 490.664062 620 "/>
</g>
</g>
<g clip-path="url(#clip-196)">
<g clip-path="url(#clip-197)">
<path fill="none" stroke-width="2" stroke-linecap="butt" stroke-linejoin="miter" stroke="rgb(0%, 50.196078%, 0%)" stroke-opacity="1" stroke-miterlimit="10" d="M 784.335938 120 L 495.664062 620 "/>
</g>
</g>
<g clip-path="url(#clip-198)">
<g clip-path="url(#clip-199)">
<path fill="none" stroke-width="2" stroke-linecap="butt" stroke-linejoin="miter" stroke="rgb(0%, 50.196078%, 0%)" stroke-opacity="1" stroke-miterlimit="10" d="M 789.335938 120 L 500.664062 620 "/>
</g>
</g>
<g clip-path="url(#clip-200)">
<g clip-path="url(#clip-201)">
<path fill="none" stroke-width="2" stroke-linecap="butt" stroke-linejoin="miter" stroke="rgb(0%, 50.196078%, 0%)" stroke-opacity="1" stroke-miterlimit="10" d="M 794.335938 120 L 505.664062 620 "/>
</g>
</g>
</svg>
